<svg xmlns="http://www.w3.org/2000/svg" version="1.1" width="200" height="200">
  <rect x="0" y="0" width="200" height="200" style="fill:#ffffff;shape-rendering:crispEdges;"/>
  <path x="0" y="0" style="fill:#000000;shape-rendering:crispEdges;" d="M9.76,9.76 V14.63 H14.63 V9.76 H9.76 Z M14.63,9.76 V14.63 H19.51 V9.76 H14.63 Z M19.51,9.76 V14.63 H24.39 V9.76 H19.51 Z M24.39,9.76 V14.63 H29.27 V9.76 H24.39 Z M29.27,9.76 V14.63 H34.15 V9.76 H29.27 Z M34.15,9.76 V14.63 H39.02 V9.76 H34.15 Z M39.02,9.76 V14.63 H43.90 V9.76 H39.02 Z M48.78,9.76 V14.63 H53.66 V9.76 H48.78 Z M58.54,9.76 V14.63 H63.41 V9.76 H58.54 Z M63.41,9.76 V14.63 H68.29 V9.76 H63.41 Z M73.17,9.76 V14.63 H78.05 V9.76 H73.17 Z M97.56,9.76 V14.63 H102.44 V9.76 H97.56 Z M102.44,9.76 V14.63 H107.32 V9.76 H102.44 Z M107.32,9.76 V14.63 H112.20 V9.76 H107.32 Z M117.07,9.76 V14.63 H121.95 V9.76 H117.07 Z M121.95,9.76 V14.63 H126.83 V9.76 H121.95 Z M126.83,9.76 V14.63 H131.71 V9.76 H126.83 Z M131.71,9.76 V14.63 H136.59 V9.76 H131.71 Z M136.59,9.76 V14.63 H141.46 V9.76 H136.59 Z M141.46,9.76 V14.63 H146.34 V9.76 H141.46 Z M146.34,9.76 V14.63 H151.22 V9.76 H146.34 Z M156.10,9.76 V14.63 H160.98 V9.76 H156.10 Z M160.98,9.76 V14.63 H165.85 V9.76 H160.98 Z M165.85,9.76 V14.63 H170.73 V9.76 H165.85 Z M170.73,9.76 V14.63 H175.61 V9.76 H170.73 Z M175.61,9.76 V14.63 H180.49 V9.76 H175.61 Z M180.49,9.76 V14.63 H185.37 V9.76 H180.49 Z M185.37,9.76 V14.63 H190.24 V9.76 H185.37 Z M9.76,14.63 V19.51 H14.63 V14.63 H9.76 Z M39.02,14.63 V19.51 H43.90 V14.63 H39.02 Z M53.66,14.63 V19.51 H58.54 V14.63 H53.66 Z M63.41,14.63 V19.51 H68.29 V14.63 H63.41 Z M73.17,14.63 V19.51 H78.05 V14.63 H73.17 Z M78.05,14.63 V19.51 H82.93 V14.63 H78.05 Z M82.93,14.63 V19.51 H87.80 V14.63 H82.93 Z M87.80,14.63 V19.51 H92.68 V14.63 H87.80 Z M92.68,14.63 V19.51 H97.56 V14.63 H92.68 Z M97.56,14.63 V19.51 H102.44 V14.63 H97.56 Z M107.32,14.63 V19.51 H112.20 V14.63 H107.32 Z M112.20,14.63 V19.51 H117.07 V14.63 H112.20 Z M117.07,14.63 V19.51 H121.95 V14.63 H117.07 Z M126.83,14.63 V19.51 H131.71 V14.63 H126.83 Z M136.59,14.63 V19.51 H141.46 V14.63 H136.59 Z M156.10,14.63 V19.51 H160.98 V14.63 H156.10 Z M185.37,14.63 V19.51 H190.24 V14.63 H185.37 Z M9.76,19.51 V24.39 H14.63 V19.51 H9.76 Z M19.51,19.51 V24.39 H24.39 V19.51 H19.51 Z M24.39,19.51 V24.39 H29.27 V19.51 H24.39 Z M29.27,19.51 V24.39 H34.15 V19.51 H29.27 Z M39.02,19.51 V24.39 H43.90 V19.51 H39.02 Z M58.54,19.51 V24.39 H63.41 V19.51 H58.54 Z M78.05,19.51 V24.39 H82.93 V19.51 H78.05 Z M87.80,19.51 V24.39 H92.68 V19.51 H87.80 Z M102.44,19.51 V24.39 H107.32 V19.51 H102.44 Z M112.20,19.51 V24.39 H117.07 V19.51 H112.20 Z M126.83,19.51 V24.39 H131.71 V19.51 H126.83 Z M136.59,19.51 V24.39 H141.46 V19.51 H136.59 Z M141.46,19.51 V24.39 H146.34 V19.51 H141.46 Z M146.34,19.51 V24.39 H151.22 V19.51 H146.34 Z M156.10,19.51 V24.39 H160.98 V19.51 H156.10 Z M165.85,19.51 V24.39 H170.73 V19.51 H165.85 Z M170.73,19.51 V24.39 H175.61 V19.51 H170.73 Z M175.61,19.51 V24.39 H180.49 V19.51 H175.61 Z M185.37,19.51 V24.39 H190.24 V19.51 H185.37 Z M9.76,24.39 V29.27 H14.63 V24.39 H9.76 Z M19.51,24.39 V29.27 H24.39 V24.39 H19.51 Z M24.39,24.39 V29.27 H29.27 V24.39 H24.39 Z M29.27,24.39 V29.27 H34.15 V24.39 H29.27 Z M39.02,24.39 V29.27 H43.90 V24.39 H39.02 Z M48.78,24.39 V29.27 H53.66 V24.39 H48.78 Z M58.54,24.39 V29.27 H63.41 V24.39 H58.54 Z M63.41,24.39 V29.27 H68.29 V24.39 H63.41 Z M78.05,24.39 V29.27 H82.93 V24.39 H78.05 Z M112.20,24.39 V29.27 H117.07 V24.39 H112.20 Z M121.95,24.39 V29.27 H126.83 V24.39 H121.95 Z M126.83,24.39 V29.27 H131.71 V24.39 H126.83 Z M131.71,24.39 V29.27 H136.59 V24.39 H131.71 Z M156.10,24.39 V29.27 H160.98 V24.39 H156.10 Z M165.85,24.39 V29.27 H170.73 V24.39 H165.85 Z M170.73,24.39 V29.27 H175.61 V24.39 H170.73 Z M175.61,24.39 V29.27 H180.49 V24.39 H175.61 Z M185.37,24.39 V29.27 H190.24 V24.39 H185.37 Z M9.76,29.27 V34.15 H14.63 V29.27 H9.76 Z M19.51,29.27 V34.15 H24.39 V29.27 H19.51 Z M24.39,29.27 V34.15 H29.27 V29.27 H24.39 Z M29.27,29.27 V34.15 H34.15 V29.27 H29.27 Z M39.02,29.27 V34.15 H43.90 V29.27 H39.02 Z M48.78,29.27 V34.15 H53.66 V29.27 H48.78 Z M58.54,29.27 V34.15 H63.41 V29.27 H58.54 Z M63.41,29.27 V34.15 H68.29 V29.27 H63.41 Z M68.29,29.27 V34.15 H73.17 V29.27 H68.29 Z M82.93,29.27 V34.15 H87.80 V29.27 H82.93 Z M92.68,29.27 V34.15 H97.56 V29.27 H92.68 Z M97.56,29.27 V34.15 H102.44 V29.27 H97.56 Z M112.20,29.27 V34.15 H117.07 V29.27 H112.20 Z M121.95,29.27 V34.15 H126.83 V29.27 H121.95 Z M136.59,29.27 V34.15 H141.46 V29.27 H136.59 Z M146.34,29.27 V34.15 H151.22 V29.27 H146.34 Z M156.10,29.27 V34.15 H160.98 V29.27 H156.10 Z M165.85,29.27 V34.15 H170.73 V29.27 H165.85 Z M170.73,29.27 V34.15 H175.61 V29.27 H170.73 Z M175.61,29.27 V34.15 H180.49 V29.27 H175.61 Z M185.37,29.27 V34.15 H190.24 V29.27 H185.37 Z M9.76,34.15 V39.02 H14.63 V34.15 H9.76 Z M39.02,34.15 V39.02 H43.90 V34.15 H39.02 Z M48.78,34.15 V39.02 H53.66 V34.15 H48.78 Z M58.54,34.15 V39.02 H63.41 V34.15 H58.54 Z M63.41,34.15 V39.02 H68.29 V34.15 H63.41 Z M78.05,34.15 V39.02 H82.93 V34.15 H78.05 Z M87.80,34.15 V39.02 H92.68 V34.15 H87.80 Z M117.07,34.15 V39.02 H121.95 V34.15 H117.07 Z M121.95,34.15 V39.02 H126.83 V34.15 H121.95 Z M136.59,34.15 V39.02 H141.46 V34.15 H136.59 Z M146.34,34.15 V39.02 H151.22 V34.15 H146.34 Z M156.10,34.15 V39.02 H160.98 V34.15 H156.10 Z M185.37,34.15 V39.02 H190.24 V34.15 H185.37 Z M9.76,39.02 V43.90 H14.63 V39.02 H9.76 Z M14.63,39.02 V43.90 H19.51 V39.02 H14.63 Z M19.51,39.02 V43.90 H24.39 V39.02 H19.51 Z M24.39,39.02 V43.90 H29.27 V39.02 H24.39 Z M29.27,39.02 V43.90 H34.15 V39.02 H29.27 Z M34.15,39.02 V43.90 H39.02 V39.02 H34.15 Z M39.02,39.02 V43.90 H43.90 V39.02 H39.02 Z M48.78,39.02 V43.90 H53.66 V39.02 H48.78 Z M58.54,39.02 V43.90 H63.41 V39.02 H58.54 Z M68.29,39.02 V43.90 H73.17 V39.02 H68.29 Z M78.05,39.02 V43.90 H82.93 V39.02 H78.05 Z M87.80,39.02 V43.90 H92.68 V39.02 H87.80 Z M97.56,39.02 V43.90 H102.44 V39.02 H97.56 Z M107.32,39.02 V43.90 H112.20 V39.02 H107.32 Z M117.07,39.02 V43.90 H121.95 V39.02 H117.07 Z M126.83,39.02 V43.90 H131.71 V39.02 H126.83 Z M136.59,39.02 V43.90 H141.46 V39.02 H136.59 Z M146.34,39.02 V43.90 H151.22 V39.02 H146.34 Z M156.10,39.02 V43.90 H160.98 V39.02 H156.10 Z M160.98,39.02 V43.90 H165.85 V39.02 H160.98 Z M165.85,39.02 V43.90 H170.73 V39.02 H165.85 Z M170.73,39.02 V43.90 H175.61 V39.02 H170.73 Z M175.61,39.02 V43.90 H180.49 V39.02 H175.61 Z M180.49,39.02 V43.90 H185.37 V39.02 H180.49 Z M185.37,39.02 V43.90 H190.24 V39.02 H185.37 Z M48.78,43.90 V48.78 H53.66 V43.90 H48.78 Z M58.54,43.90 V48.78 H63.41 V43.90 H58.54 Z M63.41,43.90 V48.78 H68.29 V43.90 H63.41 Z M73.17,43.90 V48.78 H78.05 V43.90 H73.17 Z M78.05,43.90 V48.78 H82.93 V43.90 H78.05 Z M92.68,43.90 V48.78 H97.56 V43.90 H92.68 Z M112.20,43.90 V48.78 H117.07 V43.90 H112.20 Z M117.07,43.90 V48.78 H121.95 V43.90 H117.07 Z M126.83,43.90 V48.78 H131.71 V43.90 H126.83 Z M131.71,43.90 V48.78 H136.59 V43.90 H131.71 Z M136.59,43.90 V48.78 H141.46 V43.90 H136.59 Z M141.46,43.90 V48.78 H146.34 V43.90 H141.46 Z M9.76,48.78 V53.66 H14.63 V48.78 H9.76 Z M14.63,48.78 V53.66 H19.51 V48.78 H14.63 Z M19.51,48.78 V53.66 H24.39 V48.78 H19.51 Z M29.27,48.78 V53.66 H34.15 V48.78 H29.27 Z M39.02,48.78 V53.66 H43.90 V48.78 H39.02 Z M48.78,48.78 V53.66 H53.66 V48.78 H48.78 Z M58.54,48.78 V53.66 H63.41 V48.78 H58.54 Z M63.41,48.78 V53.66 H68.29 V48.78 H63.41 Z M68.29,48.78 V53.66 H73.17 V48.78 H68.29 Z M73.17,48.78 V53.66 H78.05 V48.78 H73.17 Z M78.05,48.78 V53.66 H82.93 V48.78 H78.05 Z M82.93,48.78 V53.66 H87.80 V48.78 H82.93 Z M87.80,48.78 V53.66 H92.68 V48.78 H87.80 Z M97.56,48.78 V53.66 H102.44 V48.78 H97.56 Z M107.32,48.78 V53.66 H112.20 V48.78 H107.32 Z M112.20,48.78 V53.66 H117.07 V48.78 H112.20 Z M117.07,48.78 V53.66 H121.95 V48.78 H117.07 Z M121.95,48.78 V53.66 H126.83 V48.78 H121.95 Z M126.83,48.78 V53.66 H131.71 V48.78 H126.83 Z M131.71,48.78 V53.66 H136.59 V48.78 H131.71 Z M141.46,48.78 V53.66 H146.34 V48.78 H141.46 Z M146.34,48.78 V53.66 H151.22 V48.78 H146.34 Z M151.22,48.78 V53.66 H156.10 V48.78 H151.22 Z M156.10,48.78 V53.66 H160.98 V48.78 H156.10 Z M160.98,48.78 V53.66 H165.85 V48.78 H160.98 Z M165.85,48.78 V53.66 H170.73 V48.78 H165.85 Z M170.73,48.78 V53.66 H175.61 V48.78 H170.73 Z M185.37,48.78 V53.66 H190.24 V48.78 H185.37 Z M9.76,53.66 V58.54 H14.63 V53.66 H9.76 Z M19.51,53.66 V58.54 H24.39 V53.66 H19.51 Z M24.39,53.66 V58.54 H29.27 V53.66 H24.39 Z M29.27,53.66 V58.54 H34.15 V53.66 H29.27 Z M48.78,53.66 V58.54 H53.66 V53.66 H48.78 Z M58.54,53.66 V58.54 H63.41 V53.66 H58.54 Z M63.41,53.66 V58.54 H68.29 V53.66 H63.41 Z M73.17,53.66 V58.54 H78.05 V53.66 H73.17 Z M87.80,53.66 V58.54 H92.68 V53.66 H87.80 Z M97.56,53.66 V58.54 H102.44 V53.66 H97.56 Z M102.44,53.66 V58.54 H107.32 V53.66 H102.44 Z M112.20,53.66 V58.54 H117.07 V53.66 H112.20 Z M126.83,53.66 V58.54 H131.71 V53.66 H126.83 Z M136.59,53.66 V58.54 H141.46 V53.66 H136.59 Z M146.34,53.66 V58.54 H151.22 V53.66 H146.34 Z M151.22,53.66 V58.54 H156.10 V53.66 H151.22 Z M156.10,53.66 V58.54 H160.98 V53.66 H156.10 Z M160.98,53.66 V58.54 H165.85 V53.66 H160.98 Z M165.85,53.66 V58.54 H170.73 V53.66 H165.85 Z M170.73,53.66 V58.54 H175.61 V53.66 H170.73 Z M175.61,53.66 V58.54 H180.49 V53.66 H175.61 Z M185.37,53.66 V58.54 H190.24 V53.66 H185.37 Z M9.76,58.54 V63.41 H14.63 V58.54 H9.76 Z M24.39,58.54 V63.41 H29.27 V58.54 H24.39 Z M29.27,58.54 V63.41 H34.15 V58.54 H29.27 Z M39.02,58.54 V63.41 H43.90 V58.54 H39.02 Z M43.90,58.54 V63.41 H48.78 V58.54 H43.90 Z M53.66,58.54 V63.41 H58.54 V58.54 H53.66 Z M78.05,58.54 V63.41 H82.93 V58.54 H78.05 Z M82.93,58.54 V63.41 H87.80 V58.54 H82.93 Z M87.80,58.54 V63.41 H92.68 V58.54 H87.80 Z M97.56,58.54 V63.41 H102.44 V58.54 H97.56 Z M112.20,58.54 V63.41 H117.07 V58.54 H112.20 Z M117.07,58.54 V63.41 H121.95 V58.54 H117.07 Z M121.95,58.54 V63.41 H126.83 V58.54 H121.95 Z M126.83,58.54 V63.41 H131.71 V58.54 H126.83 Z M131.71,58.54 V63.41 H136.59 V58.54 H131.71 Z M156.10,58.54 V63.41 H160.98 V58.54 H156.10 Z M180.49,58.54 V63.41 H185.37 V58.54 H180.49 Z M9.76,63.41 V68.29 H14.63 V63.41 H9.76 Z M14.63,63.41 V68.29 H19.51 V63.41 H14.63 Z M24.39,63.41 V68.29 H29.27 V63.41 H24.39 Z M34.15,63.41 V68.29 H39.02 V63.41 H34.15 Z M53.66,63.41 V68.29 H58.54 V63.41 H53.66 Z M58.54,63.41 V68.29 H63.41 V63.41 H58.54 Z M63.41,63.41 V68.29 H68.29 V63.41 H63.41 Z M82.93,63.41 V68.29 H87.80 V63.41 H82.93 Z M97.56,63.41 V68.29 H102.44 V63.41 H97.56 Z M102.44,63.41 V68.29 H107.32 V63.41 H102.44 Z M107.32,63.41 V68.29 H112.20 V63.41 H107.32 Z M121.95,63.41 V68.29 H126.83 V63.41 H121.95 Z M126.83,63.41 V68.29 H131.71 V63.41 H126.83 Z M146.34,63.41 V68.29 H151.22 V63.41 H146.34 Z M151.22,63.41 V68.29 H156.10 V63.41 H151.22 Z M160.98,63.41 V68.29 H165.85 V63.41 H160.98 Z M165.85,63.41 V68.29 H170.73 V63.41 H165.85 Z M180.49,63.41 V68.29 H185.37 V63.41 H180.49 Z M185.37,63.41 V68.29 H190.24 V63.41 H185.37 Z M14.63,68.29 V73.17 H19.51 V68.29 H14.63 Z M19.51,68.29 V73.17 H24.39 V68.29 H19.51 Z M29.27,68.29 V73.17 H34.15 V68.29 H29.27 Z M39.02,68.29 V73.17 H43.90 V68.29 H39.02 Z M43.90,68.29 V73.17 H48.78 V68.29 H43.90 Z M58.54,68.29 V73.17 H63.41 V68.29 H58.54 Z M63.41,68.29 V73.17 H68.29 V68.29 H63.41 Z M68.29,68.29 V73.17 H73.17 V68.29 H68.29 Z M73.17,68.29 V73.17 H78.05 V68.29 H73.17 Z M82.93,68.29 V73.17 H87.80 V68.29 H82.93 Z M97.56,68.29 V73.17 H102.44 V68.29 H97.56 Z M112.20,68.29 V73.17 H117.07 V68.29 H112.20 Z M117.07,68.29 V73.17 H121.95 V68.29 H117.07 Z M126.83,68.29 V73.17 H131.71 V68.29 H126.83 Z M131.71,68.29 V73.17 H136.59 V68.29 H131.71 Z M141.46,68.29 V73.17 H146.34 V68.29 H141.46 Z M151.22,68.29 V73.17 H156.10 V68.29 H151.22 Z M165.85,68.29 V73.17 H170.73 V68.29 H165.85 Z M170.73,68.29 V73.17 H175.61 V68.29 H170.73 Z M180.49,68.29 V73.17 H185.37 V68.29 H180.49 Z M14.63,73.17 V78.05 H19.51 V73.17 H14.63 Z M43.90,73.17 V78.05 H48.78 V73.17 H43.90 Z M53.66,73.17 V78.05 H58.54 V73.17 H53.66 Z M63.41,73.17 V78.05 H68.29 V73.17 H63.41 Z M68.29,73.17 V78.05 H73.17 V73.17 H68.29 Z M73.17,73.17 V78.05 H78.05 V73.17 H73.17 Z M87.80,73.17 V78.05 H92.68 V73.17 H87.80 Z M92.68,73.17 V78.05 H97.56 V73.17 H92.68 Z M102.44,73.17 V78.05 H107.32 V73.17 H102.44 Z M112.20,73.17 V78.05 H117.07 V73.17 H112.20 Z M117.07,73.17 V78.05 H121.95 V73.17 H117.07 Z M121.95,73.17 V78.05 H126.83 V73.17 H121.95 Z M126.83,73.17 V78.05 H131.71 V73.17 H126.83 Z M131.71,73.17 V78.05 H136.59 V73.17 H131.71 Z M141.46,73.17 V78.05 H146.34 V73.17 H141.46 Z M151.22,73.17 V78.05 H156.10 V73.17 H151.22 Z M160.98,73.17 V78.05 H165.85 V73.17 H160.98 Z M175.61,73.17 V78.05 H180.49 V73.17 H175.61 Z M180.49,73.17 V78.05 H185.37 V73.17 H180.49 Z M185.37,73.17 V78.05 H190.24 V73.17 H185.37 Z M14.63,78.05 V82.93 H19.51 V78.05 H14.63 Z M29.27,78.05 V82.93 H34.15 V78.05 H29.27 Z M34.15,78.05 V82.93 H39.02 V78.05 H34.15 Z M39.02,78.05 V82.93 H43.90 V78.05 H39.02 Z M53.66,78.05 V82.93 H58.54 V78.05 H53.66 Z M78.05,78.05 V82.93 H82.93 V78.05 H78.05 Z M82.93,78.05 V82.93 H87.80 V78.05 H82.93 Z M87.80,78.05 V82.93 H92.68 V78.05 H87.80 Z M92.68,78.05 V82.93 H97.56 V78.05 H92.68 Z M160.98,78.05 V82.93 H165.85 V78.05 H160.98 Z M165.85,78.05 V82.93 H170.73 V78.05 H165.85 Z M170.73,78.05 V82.93 H175.61 V78.05 H170.73 Z M180.49,78.05 V82.93 H185.37 V78.05 H180.49 Z M185.37,78.05 V82.93 H190.24 V78.05 H185.37 Z M9.76,82.93 V87.80 H14.63 V82.93 H9.76 Z M14.63,82.93 V87.80 H19.51 V82.93 H14.63 Z M19.51,82.93 V87.80 H24.39 V82.93 H19.51 Z M58.54,82.93 V87.80 H63.41 V82.93 H58.54 Z M68.29,82.93 V87.80 H73.17 V82.93 H68.29 Z M73.17,82.93 V87.80 H78.05 V82.93 H73.17 Z M78.05,82.93 V87.80 H82.93 V82.93 H78.05 Z M87.80,82.93 V87.80 H92.68 V82.93 H87.80 Z M102.44,82.93 V87.80 H107.32 V82.93 H102.44 Z M112.20,82.93 V87.80 H117.07 V82.93 H112.20 Z M117.07,82.93 V87.80 H121.95 V82.93 H117.07 Z M121.95,82.93 V87.80 H126.83 V82.93 H121.95 Z M126.83,82.93 V87.80 H131.71 V82.93 H126.83 Z M136.59,82.93 V87.80 H141.46 V82.93 H136.59 Z M146.34,82.93 V87.80 H151.22 V82.93 H146.34 Z M151.22,82.93 V87.80 H156.10 V82.93 H151.22 Z M156.10,82.93 V87.80 H160.98 V82.93 H156.10 Z M180.49,82.93 V87.80 H185.37 V82.93 H180.49 Z M9.76,87.80 V92.68 H14.63 V87.80 H9.76 Z M14.63,87.80 V92.68 H19.51 V87.80 H14.63 Z M19.51,87.80 V92.68 H24.39 V87.80 H19.51 Z M24.39,87.80 V92.68 H29.27 V87.80 H24.39 Z M29.27,87.80 V92.68 H34.15 V87.80 H29.27 Z M34.15,87.80 V92.68 H39.02 V87.80 H34.15 Z M39.02,87.80 V92.68 H43.90 V87.80 H39.02 Z M43.90,87.80 V92.68 H48.78 V87.80 H43.90 Z M53.66,87.80 V92.68 H58.54 V87.80 H53.66 Z M58.54,87.80 V92.68 H63.41 V87.80 H58.54 Z M63.41,87.80 V92.68 H68.29 V87.80 H63.41 Z M73.17,87.80 V92.68 H78.05 V87.80 H73.17 Z M78.05,87.80 V92.68 H82.93 V87.80 H78.05 Z M82.93,87.80 V92.68 H87.80 V87.80 H82.93 Z M97.56,87.80 V92.68 H102.44 V87.80 H97.56 Z M102.44,87.80 V92.68 H107.32 V87.80 H102.44 Z M141.46,87.80 V92.68 H146.34 V87.80 H141.46 Z M160.98,87.80 V92.68 H165.85 V87.80 H160.98 Z M165.85,87.80 V92.68 H170.73 V87.80 H165.85 Z M185.37,87.80 V92.68 H190.24 V87.80 H185.37 Z M9.76,92.68 V97.56 H14.63 V92.68 H9.76 Z M14.63,92.68 V97.56 H19.51 V92.68 H14.63 Z M24.39,92.68 V97.56 H29.27 V92.68 H24.39 Z M43.90,92.68 V97.56 H48.78 V92.68 H43.90 Z M58.54,92.68 V97.56 H63.41 V92.68 H58.54 Z M63.41,92.68 V97.56 H68.29 V92.68 H63.41 Z M87.80,92.68 V97.56 H92.68 V92.68 H87.80 Z M97.56,92.68 V97.56 H102.44 V92.68 H97.56 Z M107.32,92.68 V97.56 H112.20 V92.68 H107.32 Z M112.20,92.68 V97.56 H117.07 V92.68 H112.20 Z M126.83,92.68 V97.56 H131.71 V92.68 H126.83 Z M136.59,92.68 V97.56 H141.46 V92.68 H136.59 Z M151.22,92.68 V97.56 H156.10 V92.68 H151.22 Z M156.10,92.68 V97.56 H160.98 V92.68 H156.10 Z M170.73,92.68 V97.56 H175.61 V92.68 H170.73 Z M175.61,92.68 V97.56 H180.49 V92.68 H175.61 Z M180.49,92.68 V97.56 H185.37 V92.68 H180.49 Z M14.63,97.56 V102.44 H19.51 V97.56 H14.63 Z M19.51,97.56 V102.44 H24.39 V97.56 H19.51 Z M29.27,97.56 V102.44 H34.15 V97.56 H29.27 Z M39.02,97.56 V102.44 H43.90 V97.56 H39.02 Z M43.90,97.56 V102.44 H48.78 V97.56 H43.90 Z M53.66,97.56 V102.44 H58.54 V97.56 H53.66 Z M58.54,97.56 V102.44 H63.41 V97.56 H58.54 Z M68.29,97.56 V102.44 H73.17 V97.56 H68.29 Z M73.17,97.56 V102.44 H78.05 V97.56 H73.17 Z M78.05,97.56 V102.44 H82.93 V97.56 H78.05 Z M87.80,97.56 V102.44 H92.68 V97.56 H87.80 Z M112.20,97.56 V102.44 H117.07 V97.56 H112.20 Z M121.95,97.56 V102.44 H126.83 V97.56 H121.95 Z M131.71,97.56 V102.44 H136.59 V97.56 H131.71 Z M136.59,97.56 V102.44 H141.46 V97.56 H136.59 Z M141.46,97.56 V102.44 H146.34 V97.56 H141.46 Z M156.10,97.56 V102.44 H160.98 V97.56 H156.10 Z M165.85,97.56 V102.44 H170.73 V97.56 H165.85 Z M175.61,97.56 V102.44 H180.49 V97.56 H175.61 Z M185.37,97.56 V102.44 H190.24 V97.56 H185.37 Z M9.76,102.44 V107.32 H14.63 V102.44 H9.76 Z M14.63,102.44 V107.32 H19.51 V102.44 H14.63 Z M19.51,102.44 V107.32 H24.39 V102.44 H19.51 Z M29.27,102.44 V107.32 H34.15 V102.44 H29.27 Z M43.90,102.44 V107.32 H48.78 V102.44 H43.90 Z M48.78,102.44 V107.32 H53.66 V102.44 H48.78 Z M58.54,102.44 V107.32 H63.41 V102.44 H58.54 Z M63.41,102.44 V107.32 H68.29 V102.44 H63.41 Z M78.05,102.44 V107.32 H82.93 V102.44 H78.05 Z M97.56,102.44 V107.32 H102.44 V102.44 H97.56 Z M102.44,102.44 V107.32 H107.32 V102.44 H102.44 Z M107.32,102.44 V107.32 H112.20 V102.44 H107.32 Z M112.20,102.44 V107.32 H117.07 V102.44 H112.20 Z M121.95,102.44 V107.32 H126.83 V102.44 H121.95 Z M126.83,102.44 V107.32 H131.71 V102.44 H126.83 Z M131.71,102.44 V107.32 H136.59 V102.44 H131.71 Z M141.46,102.44 V107.32 H146.34 V102.44 H141.46 Z M146.34,102.44 V107.32 H151.22 V102.44 H146.34 Z M151.22,102.44 V107.32 H156.10 V102.44 H151.22 Z M156.10,102.44 V107.32 H160.98 V102.44 H156.10 Z M185.37,102.44 V107.32 H190.24 V102.44 H185.37 Z M9.76,107.32 V112.20 H14.63 V107.32 H9.76 Z M34.15,107.32 V112.20 H39.02 V107.32 H34.15 Z M39.02,107.32 V112.20 H43.90 V107.32 H39.02 Z M58.54,107.32 V112.20 H63.41 V107.32 H58.54 Z M63.41,107.32 V112.20 H68.29 V107.32 H63.41 Z M68.29,107.32 V112.20 H73.17 V107.32 H68.29 Z M102.44,107.32 V112.20 H107.32 V107.32 H102.44 Z M107.32,107.32 V112.20 H112.20 V107.32 H107.32 Z M126.83,107.32 V112.20 H131.71 V107.32 H126.83 Z M151.22,107.32 V112.20 H156.10 V107.32 H151.22 Z M165.85,107.32 V112.20 H170.73 V107.32 H165.85 Z M170.73,107.32 V112.20 H175.61 V107.32 H170.73 Z M185.37,107.32 V112.20 H190.24 V107.32 H185.37 Z M14.63,112.20 V117.07 H19.51 V112.20 H14.63 Z M19.51,112.20 V117.07 H24.39 V112.20 H19.51 Z M24.39,112.20 V117.07 H29.27 V112.20 H24.39 Z M29.27,112.20 V117.07 H34.15 V112.20 H29.27 Z M48.78,112.20 V117.07 H53.66 V112.20 H48.78 Z M53.66,112.20 V117.07 H58.54 V112.20 H53.66 Z M73.17,112.20 V117.07 H78.05 V112.20 H73.17 Z M82.93,112.20 V117.07 H87.80 V112.20 H82.93 Z M87.80,112.20 V117.07 H92.68 V112.20 H87.80 Z M97.56,112.20 V117.07 H102.44 V112.20 H97.56 Z M117.07,112.20 V117.07 H121.95 V112.20 H117.07 Z M126.83,112.20 V117.07 H131.71 V112.20 H126.83 Z M136.59,112.20 V117.07 H141.46 V112.20 H136.59 Z M151.22,112.20 V117.07 H156.10 V112.20 H151.22 Z M160.98,112.20 V117.07 H165.85 V112.20 H160.98 Z M165.85,112.20 V117.07 H170.73 V112.20 H165.85 Z M175.61,112.20 V117.07 H180.49 V112.20 H175.61 Z M9.76,117.07 V121.95 H14.63 V117.07 H9.76 Z M14.63,117.07 V121.95 H19.51 V117.07 H14.63 Z M19.51,117.07 V121.95 H24.39 V117.07 H19.51 Z M24.39,117.07 V121.95 H29.27 V117.07 H24.39 Z M34.15,117.07 V121.95 H39.02 V117.07 H34.15 Z M39.02,117.07 V121.95 H43.90 V117.07 H39.02 Z M43.90,117.07 V121.95 H48.78 V117.07 H43.90 Z M48.78,117.07 V121.95 H53.66 V117.07 H48.78 Z M58.54,117.07 V121.95 H63.41 V117.07 H58.54 Z M82.93,117.07 V121.95 H87.80 V117.07 H82.93 Z M87.80,117.07 V121.95 H92.68 V117.07 H87.80 Z M92.68,117.07 V121.95 H97.56 V117.07 H92.68 Z M97.56,117.07 V121.95 H102.44 V117.07 H97.56 Z M102.44,117.07 V121.95 H107.32 V117.07 H102.44 Z M126.83,117.07 V121.95 H131.71 V117.07 H126.83 Z M131.71,117.07 V121.95 H136.59 V117.07 H131.71 Z M136.59,117.07 V121.95 H141.46 V117.07 H136.59 Z M141.46,117.07 V121.95 H146.34 V117.07 H141.46 Z M146.34,117.07 V121.95 H151.22 V117.07 H146.34 Z M170.73,117.07 V121.95 H175.61 V117.07 H170.73 Z M180.49,117.07 V121.95 H185.37 V117.07 H180.49 Z M185.37,117.07 V121.95 H190.24 V117.07 H185.37 Z M9.76,121.95 V126.83 H14.63 V121.95 H9.76 Z M14.63,121.95 V126.83 H19.51 V121.95 H14.63 Z M19.51,121.95 V126.83 H24.39 V121.95 H19.51 Z M24.39,121.95 V126.83 H29.27 V121.95 H24.39 Z M34.15,121.95 V126.83 H39.02 V121.95 H34.15 Z M48.78,121.95 V126.83 H53.66 V121.95 H48.78 Z M58.54,121.95 V126.83 H63.41 V121.95 H58.54 Z M63.41,121.95 V126.83 H68.29 V121.95 H63.41 Z M68.29,121.95 V126.83 H73.17 V121.95 H68.29 Z M73.17,121.95 V126.83 H78.05 V121.95 H73.17 Z M82.93,121.95 V126.83 H87.80 V121.95 H82.93 Z M92.68,121.95 V126.83 H97.56 V121.95 H92.68 Z M102.44,121.95 V126.83 H107.32 V121.95 H102.44 Z M107.32,121.95 V126.83 H112.20 V121.95 H107.32 Z M112.20,121.95 V126.83 H117.07 V121.95 H112.20 Z M117.07,121.95 V126.83 H121.95 V121.95 H117.07 Z M121.95,121.95 V126.83 H126.83 V121.95 H121.95 Z M146.34,121.95 V126.83 H151.22 V121.95 H146.34 Z M156.10,121.95 V126.83 H160.98 V121.95 H156.10 Z M160.98,121.95 V126.83 H165.85 V121.95 H160.98 Z M165.85,121.95 V126.83 H170.73 V121.95 H165.85 Z M14.63,126.83 V131.71 H19.51 V126.83 H14.63 Z M24.39,126.83 V131.71 H29.27 V126.83 H24.39 Z M39.02,126.83 V131.71 H43.90 V126.83 H39.02 Z M43.90,126.83 V131.71 H48.78 V126.83 H43.90 Z M53.66,126.83 V131.71 H58.54 V126.83 H53.66 Z M63.41,126.83 V131.71 H68.29 V126.83 H63.41 Z M68.29,126.83 V131.71 H73.17 V126.83 H68.29 Z M87.80,126.83 V131.71 H92.68 V126.83 H87.80 Z M97.56,126.83 V131.71 H102.44 V126.83 H97.56 Z M107.32,126.83 V131.71 H112.20 V126.83 H107.32 Z M112.20,126.83 V131.71 H117.07 V126.83 H112.20 Z M131.71,126.83 V131.71 H136.59 V126.83 H131.71 Z M141.46,126.83 V131.71 H146.34 V126.83 H141.46 Z M146.34,126.83 V131.71 H151.22 V126.83 H146.34 Z M165.85,126.83 V131.71 H170.73 V126.83 H165.85 Z M175.61,126.83 V131.71 H180.49 V126.83 H175.61 Z M185.37,126.83 V131.71 H190.24 V126.83 H185.37 Z M9.76,131.71 V136.59 H14.63 V131.71 H9.76 Z M14.63,131.71 V136.59 H19.51 V131.71 H14.63 Z M19.51,131.71 V136.59 H24.39 V131.71 H19.51 Z M24.39,131.71 V136.59 H29.27 V131.71 H24.39 Z M29.27,131.71 V136.59 H34.15 V131.71 H29.27 Z M43.90,131.71 V136.59 H48.78 V131.71 H43.90 Z M53.66,131.71 V136.59 H58.54 V131.71 H53.66 Z M78.05,131.71 V136.59 H82.93 V131.71 H78.05 Z M97.56,131.71 V136.59 H102.44 V131.71 H97.56 Z M102.44,131.71 V136.59 H107.32 V131.71 H102.44 Z M112.20,131.71 V136.59 H117.07 V131.71 H112.20 Z M117.07,131.71 V136.59 H121.95 V131.71 H117.07 Z M121.95,131.71 V136.59 H126.83 V131.71 H121.95 Z M126.83,131.71 V136.59 H131.71 V131.71 H126.83 Z M146.34,131.71 V136.59 H151.22 V131.71 H146.34 Z M156.10,131.71 V136.59 H160.98 V131.71 H156.10 Z M160.98,131.71 V136.59 H165.85 V131.71 H160.98 Z M165.85,131.71 V136.59 H170.73 V131.71 H165.85 Z M175.61,131.71 V136.59 H180.49 V131.71 H175.61 Z M14.63,136.59 V141.46 H19.51 V136.59 H14.63 Z M29.27,136.59 V141.46 H34.15 V136.59 H29.27 Z M39.02,136.59 V141.46 H43.90 V136.59 H39.02 Z M73.17,136.59 V141.46 H78.05 V136.59 H73.17 Z M82.93,136.59 V141.46 H87.80 V136.59 H82.93 Z M87.80,136.59 V141.46 H92.68 V136.59 H87.80 Z M112.20,136.59 V141.46 H117.07 V136.59 H112.20 Z M131.71,136.59 V141.46 H136.59 V136.59 H131.71 Z M136.59,136.59 V141.46 H141.46 V136.59 H136.59 Z M141.46,136.59 V141.46 H146.34 V136.59 H141.46 Z M156.10,136.59 V141.46 H160.98 V136.59 H156.10 Z M175.61,136.59 V141.46 H180.49 V136.59 H175.61 Z M180.49,136.59 V141.46 H185.37 V136.59 H180.49 Z M48.78,141.46 V146.34 H53.66 V141.46 H48.78 Z M53.66,141.46 V146.34 H58.54 V141.46 H53.66 Z M58.54,141.46 V146.34 H63.41 V141.46 H58.54 Z M63.41,141.46 V146.34 H68.29 V141.46 H63.41 Z M68.29,141.46 V146.34 H73.17 V141.46 H68.29 Z M73.17,141.46 V146.34 H78.05 V141.46 H73.17 Z M78.05,141.46 V146.34 H82.93 V141.46 H78.05 Z M87.80,141.46 V146.34 H92.68 V141.46 H87.80 Z M92.68,141.46 V146.34 H97.56 V141.46 H92.68 Z M97.56,141.46 V146.34 H102.44 V141.46 H97.56 Z M102.44,141.46 V146.34 H107.32 V141.46 H102.44 Z M107.32,141.46 V146.34 H112.20 V141.46 H107.32 Z M112.20,141.46 V146.34 H117.07 V141.46 H112.20 Z M117.07,141.46 V146.34 H121.95 V141.46 H117.07 Z M121.95,141.46 V146.34 H126.83 V141.46 H121.95 Z M131.71,141.46 V146.34 H136.59 V141.46 H131.71 Z M136.59,141.46 V146.34 H141.46 V141.46 H136.59 Z M141.46,141.46 V146.34 H146.34 V141.46 H141.46 Z M146.34,141.46 V146.34 H151.22 V141.46 H146.34 Z M165.85,141.46 V146.34 H170.73 V141.46 H165.85 Z M170.73,141.46 V146.34 H175.61 V141.46 H170.73 Z M175.61,141.46 V146.34 H180.49 V141.46 H175.61 Z M180.49,141.46 V146.34 H185.37 V141.46 H180.49 Z M185.37,141.46 V146.34 H190.24 V141.46 H185.37 Z M9.76,146.34 V151.22 H14.63 V146.34 H9.76 Z M14.63,146.34 V151.22 H19.51 V146.34 H14.63 Z M19.51,146.34 V151.22 H24.39 V146.34 H19.51 Z M29.27,146.34 V151.22 H34.15 V146.34 H29.27 Z M34.15,146.34 V151.22 H39.02 V146.34 H34.15 Z M39.02,146.34 V151.22 H43.90 V146.34 H39.02 Z M53.66,146.34 V151.22 H58.54 V146.34 H53.66 Z M58.54,146.34 V151.22 H63.41 V146.34 H58.54 Z M63.41,146.34 V151.22 H68.29 V146.34 H63.41 Z M73.17,146.34 V151.22 H78.05 V146.34 H73.17 Z M82.93,146.34 V151.22 H87.80 V146.34 H82.93 Z M87.80,146.34 V151.22 H92.68 V146.34 H87.80 Z M92.68,146.34 V151.22 H97.56 V146.34 H92.68 Z M97.56,146.34 V151.22 H102.44 V146.34 H97.56 Z M102.44,146.34 V151.22 H107.32 V146.34 H102.44 Z M107.32,146.34 V151.22 H112.20 V146.34 H107.32 Z M136.59,146.34 V151.22 H141.46 V146.34 H136.59 Z M141.46,146.34 V151.22 H146.34 V146.34 H141.46 Z M146.34,146.34 V151.22 H151.22 V146.34 H146.34 Z M151.22,146.34 V151.22 H156.10 V146.34 H151.22 Z M156.10,146.34 V151.22 H160.98 V146.34 H156.10 Z M160.98,146.34 V151.22 H165.85 V146.34 H160.98 Z M165.85,146.34 V151.22 H170.73 V146.34 H165.85 Z M185.37,146.34 V151.22 H190.24 V146.34 H185.37 Z M48.78,151.22 V156.10 H53.66 V151.22 H48.78 Z M53.66,151.22 V156.10 H58.54 V151.22 H53.66 Z M58.54,151.22 V156.10 H63.41 V151.22 H58.54 Z M73.17,151.22 V156.10 H78.05 V151.22 H73.17 Z M78.05,151.22 V156.10 H82.93 V151.22 H78.05 Z M82.93,151.22 V156.10 H87.80 V151.22 H82.93 Z M87.80,151.22 V156.10 H92.68 V151.22 H87.80 Z M97.56,151.22 V156.10 H102.44 V151.22 H97.56 Z M107.32,151.22 V156.10 H112.20 V151.22 H107.32 Z M112.20,151.22 V156.10 H117.07 V151.22 H112.20 Z M126.83,151.22 V156.10 H131.71 V151.22 H126.83 Z M131.71,151.22 V156.10 H136.59 V151.22 H131.71 Z M146.34,151.22 V156.10 H151.22 V151.22 H146.34 Z M165.85,151.22 V156.10 H170.73 V151.22 H165.85 Z M170.73,151.22 V156.10 H175.61 V151.22 H170.73 Z M185.37,151.22 V156.10 H190.24 V151.22 H185.37 Z M9.76,156.10 V160.98 H14.63 V156.10 H9.76 Z M14.63,156.10 V160.98 H19.51 V156.10 H14.63 Z M19.51,156.10 V160.98 H24.39 V156.10 H19.51 Z M24.39,156.10 V160.98 H29.27 V156.10 H24.39 Z M29.27,156.10 V160.98 H34.15 V156.10 H29.27 Z M34.15,156.10 V160.98 H39.02 V156.10 H34.15 Z M39.02,156.10 V160.98 H43.90 V156.10 H39.02 Z M58.54,156.10 V160.98 H63.41 V156.10 H58.54 Z M63.41,156.10 V160.98 H68.29 V156.10 H63.41 Z M68.29,156.10 V160.98 H73.17 V156.10 H68.29 Z M78.05,156.10 V160.98 H82.93 V156.10 H78.05 Z M87.80,156.10 V160.98 H92.68 V156.10 H87.80 Z M97.56,156.10 V160.98 H102.44 V156.10 H97.56 Z M102.44,156.10 V160.98 H107.32 V156.10 H102.44 Z M107.32,156.10 V160.98 H112.20 V156.10 H107.32 Z M117.07,156.10 V160.98 H121.95 V156.10 H117.07 Z M121.95,156.10 V160.98 H126.83 V156.10 H121.95 Z M126.83,156.10 V160.98 H131.71 V156.10 H126.83 Z M136.59,156.10 V160.98 H141.46 V156.10 H136.59 Z M141.46,156.10 V160.98 H146.34 V156.10 H141.46 Z M146.34,156.10 V160.98 H151.22 V156.10 H146.34 Z M156.10,156.10 V160.98 H160.98 V156.10 H156.10 Z M165.85,156.10 V160.98 H170.73 V156.10 H165.85 Z M170.73,156.10 V160.98 H175.61 V156.10 H170.73 Z M180.49,156.10 V160.98 H185.37 V156.10 H180.49 Z M9.76,160.98 V165.85 H14.63 V160.98 H9.76 Z M39.02,160.98 V165.85 H43.90 V160.98 H39.02 Z M63.41,160.98 V165.85 H68.29 V160.98 H63.41 Z M68.29,160.98 V165.85 H73.17 V160.98 H68.29 Z M82.93,160.98 V165.85 H87.80 V160.98 H82.93 Z M87.80,160.98 V165.85 H92.68 V160.98 H87.80 Z M97.56,160.98 V165.85 H102.44 V160.98 H97.56 Z M107.32,160.98 V165.85 H112.20 V160.98 H107.32 Z M117.07,160.98 V165.85 H121.95 V160.98 H117.07 Z M121.95,160.98 V165.85 H126.83 V160.98 H121.95 Z M126.83,160.98 V165.85 H131.71 V160.98 H126.83 Z M146.34,160.98 V165.85 H151.22 V160.98 H146.34 Z M165.85,160.98 V165.85 H170.73 V160.98 H165.85 Z M185.37,160.98 V165.85 H190.24 V160.98 H185.37 Z M9.76,165.85 V170.73 H14.63 V165.85 H9.76 Z M19.51,165.85 V170.73 H24.39 V165.85 H19.51 Z M24.39,165.85 V170.73 H29.27 V165.85 H24.39 Z M29.27,165.85 V170.73 H34.15 V165.85 H29.27 Z M39.02,165.85 V170.73 H43.90 V165.85 H39.02 Z M48.78,165.85 V170.73 H53.66 V165.85 H48.78 Z M53.66,165.85 V170.73 H58.54 V165.85 H53.66 Z M73.17,165.85 V170.73 H78.05 V165.85 H73.17 Z M78.05,165.85 V170.73 H82.93 V165.85 H78.05 Z M97.56,165.85 V170.73 H102.44 V165.85 H97.56 Z M102.44,165.85 V170.73 H107.32 V165.85 H102.44 Z M107.32,165.85 V170.73 H112.20 V165.85 H107.32 Z M112.20,165.85 V170.73 H117.07 V165.85 H112.20 Z M121.95,165.85 V170.73 H126.83 V165.85 H121.95 Z M131.71,165.85 V170.73 H136.59 V165.85 H131.71 Z M146.34,165.85 V170.73 H151.22 V165.85 H146.34 Z M151.22,165.85 V170.73 H156.10 V165.85 H151.22 Z M156.10,165.85 V170.73 H160.98 V165.85 H156.10 Z M160.98,165.85 V170.73 H165.85 V165.85 H160.98 Z M165.85,165.85 V170.73 H170.73 V165.85 H165.85 Z M175.61,165.85 V170.73 H180.49 V165.85 H175.61 Z M180.49,165.85 V170.73 H185.37 V165.85 H180.49 Z M9.76,170.73 V175.61 H14.63 V170.73 H9.76 Z M19.51,170.73 V175.61 H24.39 V170.73 H19.51 Z M24.39,170.73 V175.61 H29.27 V170.73 H24.39 Z M29.27,170.73 V175.61 H34.15 V170.73 H29.27 Z M39.02,170.73 V175.61 H43.90 V170.73 H39.02 Z M63.41,170.73 V175.61 H68.29 V170.73 H63.41 Z M68.29,170.73 V175.61 H73.17 V170.73 H68.29 Z M73.17,170.73 V175.61 H78.05 V170.73 H73.17 Z M78.05,170.73 V175.61 H82.93 V170.73 H78.05 Z M82.93,170.73 V175.61 H87.80 V170.73 H82.93 Z M97.56,170.73 V175.61 H102.44 V170.73 H97.56 Z M102.44,170.73 V175.61 H107.32 V170.73 H102.44 Z M117.07,170.73 V175.61 H121.95 V170.73 H117.07 Z M121.95,170.73 V175.61 H126.83 V170.73 H121.95 Z M146.34,170.73 V175.61 H151.22 V170.73 H146.34 Z M170.73,170.73 V175.61 H175.61 V170.73 H170.73 Z M180.49,170.73 V175.61 H185.37 V170.73 H180.49 Z M185.37,170.73 V175.61 H190.24 V170.73 H185.37 Z M9.76,175.61 V180.49 H14.63 V175.61 H9.76 Z M19.51,175.61 V180.49 H24.39 V175.61 H19.51 Z M24.39,175.61 V180.49 H29.27 V175.61 H24.39 Z M29.27,175.61 V180.49 H34.15 V175.61 H29.27 Z M39.02,175.61 V180.49 H43.90 V175.61 H39.02 Z M48.78,175.61 V180.49 H53.66 V175.61 H48.78 Z M53.66,175.61 V180.49 H58.54 V175.61 H53.66 Z M63.41,175.61 V180.49 H68.29 V175.61 H63.41 Z M78.05,175.61 V180.49 H82.93 V175.61 H78.05 Z M82.93,175.61 V180.49 H87.80 V175.61 H82.93 Z M87.80,175.61 V180.49 H92.68 V175.61 H87.80 Z M92.68,175.61 V180.49 H97.56 V175.61 H92.68 Z M112.20,175.61 V180.49 H117.07 V175.61 H112.20 Z M121.95,175.61 V180.49 H126.83 V175.61 H121.95 Z M141.46,175.61 V180.49 H146.34 V175.61 H141.46 Z M146.34,175.61 V180.49 H151.22 V175.61 H146.34 Z M151.22,175.61 V180.49 H156.10 V175.61 H151.22 Z M175.61,175.61 V180.49 H180.49 V175.61 H175.61 Z M180.49,175.61 V180.49 H185.37 V175.61 H180.49 Z M9.76,180.49 V185.37 H14.63 V180.49 H9.76 Z M39.02,180.49 V185.37 H43.90 V180.49 H39.02 Z M48.78,180.49 V185.37 H53.66 V180.49 H48.78 Z M53.66,180.49 V185.37 H58.54 V180.49 H53.66 Z M63.41,180.49 V185.37 H68.29 V180.49 H63.41 Z M78.05,180.49 V185.37 H82.93 V180.49 H78.05 Z M136.59,180.49 V185.37 H141.46 V180.49 H136.59 Z M151.22,180.49 V185.37 H156.10 V180.49 H151.22 Z M156.10,180.49 V185.37 H160.98 V180.49 H156.10 Z M165.85,180.49 V185.37 H170.73 V180.49 H165.85 Z M170.73,180.49 V185.37 H175.61 V180.49 H170.73 Z M175.61,180.49 V185.37 H180.49 V180.49 H175.61 Z M180.49,180.49 V185.37 H185.37 V180.49 H180.49 Z M9.76,185.37 V190.24 H14.63 V185.37 H9.76 Z M14.63,185.37 V190.24 H19.51 V185.37 H14.63 Z M19.51,185.37 V190.24 H24.39 V185.37 H19.51 Z M24.39,185.37 V190.24 H29.27 V185.37 H24.39 Z M29.27,185.37 V190.24 H34.15 V185.37 H29.27 Z M34.15,185.37 V190.24 H39.02 V185.37 H34.15 Z M39.02,185.37 V190.24 H43.90 V185.37 H39.02 Z M48.78,185.37 V190.24 H53.66 V185.37 H48.78 Z M58.54,185.37 V190.24 H63.41 V185.37 H58.54 Z M63.41,185.37 V190.24 H68.29 V185.37 H63.41 Z M68.29,185.37 V190.24 H73.17 V185.37 H68.29 Z M78.05,185.37 V190.24 H82.93 V185.37 H78.05 Z M82.93,185.37 V190.24 H87.80 V185.37 H82.93 Z M97.56,185.37 V190.24 H102.44 V185.37 H97.56 Z M102.44,185.37 V190.24 H107.32 V185.37 H102.44 Z M117.07,185.37 V190.24 H121.95 V185.37 H117.07 Z M121.95,185.37 V190.24 H126.83 V185.37 H121.95 Z M136.59,185.37 V190.24 H141.46 V185.37 H136.59 Z M141.46,185.37 V190.24 H146.34 V185.37 H141.46 Z M156.10,185.37 V190.24 H160.98 V185.37 H156.10 Z M165.85,185.37 V190.24 H170.73 V185.37 H165.85 Z M175.61,185.37 V190.24 H180.49 V185.37 H175.61 Z M180.49,185.37 V190.24 H185.37 V185.37 H180.49 Z M185.37,185.37 V190.24 H190.24 V185.37 H185.37 Z " /></svg>
